{
  "accessors": [
    {
      "bufferView": 2,
      "componentType": 5126,
      "count": 7524,
      "max": [
        -2.6132805347442627,
        1.159778356552124,
        4.5346274375915527
      ],
      "min": [
        -3.9293384552001953,
        -0.07285039871931076,
        0.47715231776237488
      ],
      "type": "VEC3"
    },
    {
      "bufferView": 2,
      "byteOffset": 90288,
      "componentType": 5126,
      "count": 7524,
      "max": [
        0.99999165534973145,
        0.9995652437210083,
        0.99965417385101318
      ],
      "min": [
        -0.99999123811721802,
        -0.99999046325683594,
        -0.9985651969909668
      ],
      "type": "VEC3"
    },
    {
      "bufferView": 3,
      "componentType": 5126,
      "count": 7524,
      "max": [
        0.99753141403198242,
        0.99879598617553711,
        0.99997138977050781,
        1
      ],
      "min": [
        -0.99179476499557495,
        -0.99969524145126343,
        -0.99998641014099121,
        -1
      ],
      "type": "VEC4"
    },
    {
      "bufferView": 1,
      "componentType": 5126,
      "count": 7524,
      "max": [
        0.99804002046585083,
        0.8845599889755249
      ],
      "min": [
        0.0019499999471008778,
        0.0019499999471008778
      ],
      "type": "VEC2"
    },
    {
      "bufferView": 0,
      "componentType": 5125,
      "count": 42078,
      "max": [
        7523
      ],
      "min": [
        0
      ],
      "type": "SCALAR"
    },
    {
      "bufferView": 2,
      "byteOffset": 180576,
      "componentType": 5126,
      "count": 943,
      "max": [
        0.24524492025375366,
        0.82824397087097168,
        0.23680970072746277
      ],
      "min": [
        -0.24235863983631134,
        -0.12361057102680206,
        -0.072382435202598572
      ],
      "type": "VEC3"
    },
    {
      "bufferView": 2,
      "byteOffset": 191892,
      "componentType": 5126,
      "count": 943,
      "max": [
        0.99909728765487671,
        0.99225705862045288,
        0.99943250417709351
      ],
      "min": [
        -0.99601483345031738,
        -0.99391329288482666,
        -0.99912697076797485
      ],
      "type": "VEC3"
    },
    {
      "bufferView": 3,
      "byteOffset": 120384,
      "componentType": 5126,
      "count": 943,
      "max": [
        0.9997524619102478,
        0.99967092275619507,
        0.99153321981430054,
        1
      ],
      "min": [
        -0.999614417552948,
        -0.99845826625823975,
        -0.99831342697143555,
        -1
      ],
      "type": "VEC4"
    },
    {
      "bufferView": 1,
      "byteOffset": 60192,
      "componentType": 5126,
      "count": 943,
      "max": [
        0.9967917799949646,
        0.99966681003570557
      ],
      "min": [
        0.0052824178710579872,
        0.19737114012241364
      ],
      "type": "VEC2"
    },
    {
      "bufferView": 0,
      "byteOffset": 168312,
      "componentType": 5125,
      "count": 4674,
      "max": [
        942
      ],
      "min": [
        0
      ],
      "type": "SCALAR"
    },
    {
      "bufferView": 2,
      "byteOffset": 203208,
      "componentType": 5126,
      "count": 323,
      "max": [
        0.15792489051818848,
        0.15674912929534912,
        0.061535194516181946
      ],
      "min": [
        -0.45823335647583008,
        -0.17238059639930725,
        -0.21992748975753784
      ],
      "type": "VEC3"
    },
    {
      "bufferView": 2,
      "byteOffset": 207084,
      "componentType": 5126,
      "count": 323,
      "max": [
        0.99918669462203979,
        0.99261581897735596,
        0.99850243330001831
      ],
      "min": [
        -0.99731546640396118,
        -0.86332416534423828,
        -0.7319902777671814
      ],
      "type": "VEC3"
    },
    {
      "bufferView": 3,
      "byteOffset": 135472,
      "componentType": 5126,
      "count": 323,
      "max": [
        0.78776448965072632,
        0.99986505508422852,
        0.90988481044769287,
        1
      ],
      "min": [
        -0.86806243658065796,
        -0.99971067905426025,
        -0.9990883469581604,
        1
      ],
      "type": "VEC4"
    },
    {
      "bufferView": 1,
      "byteOffset": 67736,
      "componentType": 5126,
      "count": 323,
      "max": [
        0.98494583368301392,
        0.98415458202362061
      ],
      "min": [
        0.014891918748617172,
        0.017340157181024551
      ],
      "type": "VEC2"
    },
    {
      "bufferView": 0,
      "byteOffset": 187008,
      "componentType": 5125,
      "count": 1731,
      "max": [
        322
      ],
      "min": [
        0
      ],
      "type": "SCALAR"
    }
  ],
  "asset": {
    "extras": {
      "author": "gjpetch (https://sketchfab.com/gjpetch)",
      "license": "CC-BY-4.0 (http://creativecommons.org/licenses/by/4.0/)",
      "source": "https://sketchfab.com/models/189b319c8d454d648ba8cf944b23cca9",
      "title": "Pickle Rick"
    },
    "generator": "Sketchfab-3.19.3",
    "version": "2.0"
  },
  "bufferViews": [
    {
      "buffer": 0,
      "byteLength": 193932,
      "byteOffset": 0,
      "name": "floatBufferViews",
      "target": 34963
    },
    {
      "buffer": 0,
      "byteLength": 70320,
      "byteOffset": 193932,
      "byteStride": 8,
      "name": "floatBufferViews",
      "target": 34962
    },
    {
      "buffer": 0,
      "byteLength": 210960,
      "byteOffset": 264252,
      "byteStride": 12,
      "name": "floatBufferViews",
      "target": 34962
    },
    {
      "buffer": 0,
      "byteLength": 140640,
      "byteOffset": 475212,
      "byteStride": 16,
      "name": "floatBufferViews",
      "target": 34962
    }
  ],
  "buffers": [
    {
      "byteLength": 615852,
      "uri": "scene.bin"
    }
  ],
  "images": [
    {
      "uri": "textures/material_emissive.jpeg"
    },
    {
      "uri": "textures/material_normal.png"
    },
    {
      "uri": "textures/material_baseColor.jpeg"
    },
    {
      "uri": "textures/04_-_Default_emissive.jpeg"
    },
    {
      "uri": "textures/04_-_Default_normal.png"
    },
    {
      "uri": "textures/04_-_Default_metallicRoughness.png"
    },
    {
      "uri": "textures/04_-_Default_baseColor.jpeg"
    }
  ],
  "materials": [
    {
      "doubleSided": true,
      "emissiveFactor": [
        1,
        1,
        1
      ],
      "emissiveTexture": {
        "index": 3,
        "texCoord": 0
      },
      "name": "04_-_Default",
      "normalTexture": {
        "index": 4,
        "scale": 1,
        "texCoord": 0
      },
      "pbrMetallicRoughness": {
        "baseColorFactor": [
          0,
          0,
          0,
          1
        ],
        "baseColorTexture": {
          "index": 6,
          "texCoord": 0
        },
        "metallicFactor": 0,
        "metallicRoughnessTexture": {
          "index": 5,
          "texCoord": 0
        },
        "roughnessFactor": 1
      }
    },
    {
      "doubleSided": true,
      "emissiveFactor": [
        1,
        1,
        1
      ],
      "emissiveTexture": {
        "index": 0,
        "texCoord": 0
      },
      "name": "material",
      "normalTexture": {
        "index": 1,
        "scale": 1,
        "texCoord": 0
      },
      "pbrMetallicRoughness": {
        "baseColorFactor": [
          0,
          0,
          0,
          1
        ],
        "baseColorTexture": {
          "index": 2,
          "texCoord": 0
        },
        "metallicFactor": 0,
        "roughnessFactor": 0.079978990900000047
      }
    }
  ],
  "meshes": [
    {
      "name": "pickle_rick_low_04 - Default_0",
      "primitives": [
        {
          "attributes": {
            "NORMAL": 1,
            "POSITION": 0,
            "TANGENT": 2,
            "TEXCOORD_0": 3
          },
          "indices": 4,
          "material": 0,
          "mode": 4
        }
      ]
    },
    {
      "name": "teath_04 - Default_0",
      "primitives": [
        {
          "attributes": {
            "NORMAL": 6,
            "POSITION": 5,
            "TANGENT": 7,
            "TEXCOORD_0": 8
          },
          "indices": 9,
          "material": 0,
          "mode": 4
        }
      ]
    },
    {
      "name": "GeoSphere001_eye_0",
      "primitives": [
        {
          "attributes": {
            "NORMAL": 11,
            "POSITION": 10,
            "TANGENT": 12,
            "TEXCOORD_0": 13
          },
          "indices": 14,
          "material": 1,
          "mode": 4
        }
      ]
    }
  ],
  "nodes": [
    {
      "children": [
        1
      ],
      "name": "RootNode (gltf orientation matrix)",
      "rotation": [
        -0.70710678118654746,
        -0,
        -0,
        0.70710678118654757
      ]
    },
    {
      "children": [
        2
      ],
      "matrix": [
        0.99904948472976685,
        0.02800232358276844,
        -0.033407077193260193,
        0,
        -0.028875960037112236,
        0.99924582242965698,
        -0.025961833074688911,
        0,
        0.032654888927936554,
        0.026901816949248314,
        0.99910455942153931,
        0,
        0.02119065448641777,
        0.012052952311933041,
        0.0056959111243486404,
        1
      ],
      "name": "RootNode (model correction matrix)"
    },
    {
      "children": [
        3
      ],
      "matrix": [
        1,
        0,
        0,
        0,
        0,
        0,
        1,
        0,
        0,
        -1,
        0,
        0,
        0,
        0,
        0,
        1
      ],
      "name": "fe48b7c1632f4a549fafe6945f5d74c2.fbx"
    },
    {
      "children": [
        4,
        6,
        8
      ],
      "name": "RootNode"
    },
    {
      "children": [
        5
      ],
      "matrix": [
        2.5399999618530273,
        0,
        0,
        0,
        0,
        5.6399328803925005e-16,
        -2.5399999618530273,
        0,
        0,
        2.5399999618530273,
        5.6399328803925005e-16,
        0,
        8.2449760437011719,
        -6.7373871803283691,
        1.0656126737594604,
        1
      ],
      "name": "pickle_rick_low"
    },
    {
      "mesh": 0,
      "name": "pickle_rick_low_04 - Default_0"
    },
    {
      "children": [
        7
      ],
      "matrix": [
        2.5399999618530273,
        0,
        0,
        0,
        0,
        2.5399999618529936,
        4.1381853354015149e-07,
        0,
        0,
        -4.1381853354015149e-07,
        2.5399999618529936,
        0,
        0.206429123878479,
        2.0748136043548584,
        0.41557526588439941,
        1
      ],
      "name": "teath"
    },
    {
      "mesh": 1,
      "name": "teath_04 - Default_0"
    },
    {
      "children": [
        9
      ],
      "matrix": [
        2.2297178383942722,
        6.1481796708244406e-17,
        -1.0040745878480724,
        0,
        1.6358452509826579e-07,
        2.4453644752502117,
        3.6326716985132428e-07,
        0,
        1.0040745878480593,
        -3.9840046880421223e-07,
        2.2297178383942424,
        0,
        0.61898869276046753,
        3.212153434753418,
        0.86978226900100708,
        1
      ],
      "name": "GeoSphere001"
    },
    {
      "mesh": 2,
      "name": "GeoSphere001_eye_0"
    }
  ],
  "samplers": [
    {
      "magFilter": 9729,
      "minFilter": 9987,
      "wrapS": 10497,
      "wrapT": 10497
    }
  ],
  "scene": 0,
  "scenes": [
    {
      "name": "OSG_Scene",
      "nodes": [
        0
      ]
    }
  ],
  "textures": [
    {
      "sampler": 0,
      "source": 0
    },
    {
      "sampler": 0,
      "source": 1
    },
    {
      "sampler": 0,
      "source": 2
    },
    {
      "sampler": 0,
      "source": 3
    },
    {
      "sampler": 0,
      "source": 4
    },
    {
      "sampler": 0,
      "source": 5
    },
    {
      "sampler": 0,
      "source": 6
    }
  ]
}

