{
  "accessors": [
    {
      "bufferView": 1,
      "componentType": 5126,
      "count": 65532,
      "max": [
        2.5934457778930664,
        2.6296539306640625,
        3.4822161197662354
      ],
      "min": [
        0.67151665687561035,
        0.61649227142333984,
        1.804229736328125
      ],
      "type": "VEC3"
    },
    {
      "bufferView": 1,
      "byteOffset": 786384,
      "componentType": 5126,
      "count": 65532,
      "max": [
        0.9223024845123291,
        0.90345573425292969,
        0.9999997615814209
      ],
      "min": [
        -0.99999439716339111,
        -0.99999892711639404,
        -0.99953383207321167
      ],
      "type": "VEC3"
    },
    {
      "bufferView": 2,
      "componentType": 5126,
      "count": 65532,
      "max": [
        0.9843137264251709,
        0.7607843279838562,
        0.40000000596046448,
        1
      ],
      "min": [
        0.94117647409439087,
        0.62352943420410156,
        0.27058824896812439,
        1
      ],
      "type": "VEC4"
    },
    {
      "bufferView": 0,
      "componentType": 5125,
      "count": 382395,
      "max": [
        65531
      ],
      "min": [
        0
      ],
      "type": "SCALAR"
    },
    {
      "bufferView": 1,
      "byteOffset": 1572768,
      "componentType": 5126,
      "count": 65532,
      "max": [
        2.6819257736206055,
        2.7079916000366211,
        3.2703683376312256
      ],
      "min": [
        0.7857210636138916,
        0.60556304454803467,
        1.7586328983306885
      ],
      "type": "VEC3"
    },
    {
      "bufferView": 1,
      "byteOffset": 2359152,
      "componentType": 5126,
      "count": 65532,
      "max": [
        0.9999890923500061,
        0.99999159574508667,
        1
      ],
      "min": [
        -0.90561890602111816,
        -0.99989205598831177,
        -0.99999958276748657
      ],
      "type": "VEC3"
    },
    {
      "bufferView": 2,
      "byteOffset": 1048512,
      "componentType": 5126,
      "count": 65532,
      "max": [
        1,
        0.78823530673980713,
        0.40000000596046448,
        1
      ],
      "min": [
        0.94117647409439087,
        0.62352943420410156,
        0.27058824896812439,
        1
      ],
      "type": "VEC4"
    },
    {
      "bufferView": 0,
      "byteOffset": 1529580,
      "componentType": 5125,
      "count": 373209,
      "max": [
        65531
      ],
      "min": [
        0
      ],
      "type": "SCALAR"
    },
    {
      "bufferView": 1,
      "byteOffset": 3145536,
      "componentType": 5126,
      "count": 65532,
      "max": [
        2.3388805389404297,
        2.4332656860351562,
        3.1003332138061523
      ],
      "min": [
        0.98525696992874146,
        0.78228145837783813,
        1.7422211170196533
      ],
      "type": "VEC3"
    },
    {
      "bufferView": 1,
      "byteOffset": 3931920,
      "componentType": 5126,
      "count": 65532,
      "max": [
        0.99989569187164307,
        0.99993342161178589,
        0.99999994039535522
      ],
      "min": [
        -0.99999833106994629,
        -0.9982801079750061,
        -0.61576569080352783
      ],
      "type": "VEC3"
    },
    {
      "bufferView": 2,
      "byteOffset": 2097024,
      "componentType": 5126,
      "count": 65532,
      "max": [
        1,
        1,
        1,
        1
      ],
      "min": [
        0.9529411792755127,
        0.67450982332229614,
        0.26666668057441711,
        1
      ],
      "type": "VEC4"
    },
    {
      "bufferView": 0,
      "byteOffset": 3022416,
      "componentType": 5125,
      "count": 355326,
      "max": [
        65531
      ],
      "min": [
        0
      ],
      "type": "SCALAR"
    },
    {
      "bufferView": 1,
      "byteOffset": 4718304,
      "componentType": 5126,
      "count": 65532,
      "max": [
        2.7155177593231201,
        2.6343278884887695,
        2.4417824745178223
      ],
      "min": [
        0.68109828233718872,
        0.84323263168334961,
        0.42420125007629395
      ],
      "type": "VEC3"
    },
    {
      "bufferView": 1,
      "byteOffset": 5504688,
      "componentType": 5126,
      "count": 65532,
      "max": [
        0.99803543090820312,
        0.99999719858169556,
        0.99475294351577759
      ],
      "min": [
        -0.99895209074020386,
        -0.98205220699310303,
        -0.99999397993087769
      ],
      "type": "VEC3"
    },
    {
      "bufferView": 2,
      "byteOffset": 3145536,
      "componentType": 5126,
      "count": 65532,
      "max": [
        0.99607843160629272,
        0.78823530673980713,
        0.30980393290519714,
        1
      ],
      "min": [
        0.74901962280273438,
        0.49411764740943909,
        0.20392157137393951,
        1
      ],
      "type": "VEC4"
    },
    {
      "bufferView": 0,
      "byteOffset": 4443720,
      "componentType": 5125,
      "count": 367704,
      "max": [
        65531
      ],
      "min": [
        0
      ],
      "type": "SCALAR"
    },
    {
      "bufferView": 1,
      "byteOffset": 6291072,
      "componentType": 5126,
      "count": 65532,
      "max": [
        2.7478551864624023,
        2.5658960342407227,
        2.4376847743988037
      ],
      "min": [
        0.60554218292236328,
        0.5519111156463623,
        0.18046689033508301
      ],
      "type": "VEC3"
    },
    {
      "bufferView": 1,
      "byteOffset": 7077456,
      "componentType": 5126,
      "count": 65532,
      "max": [
        0.99986553192138672,
        0.96028178930282593,
        0.99040567874908447
      ],
      "min": [
        -0.99999791383743286,
        -0.96378469467163086,
        -0.99999833106994629
      ],
      "type": "VEC3"
    },
    {
      "bufferView": 2,
      "byteOffset": 4194048,
      "componentType": 5126,
      "count": 65532,
      "max": [
        0.9843137264251709,
        0.7607843279838562,
        0.31764706969261169,
        1
      ],
      "min": [
        0.74901962280273438,
        0.49019607901573181,
        0.20000000298023224,
        1
      ],
      "type": "VEC4"
    },
    {
      "bufferView": 0,
      "byteOffset": 5914536,
      "componentType": 5125,
      "count": 361107,
      "max": [
        65531
      ],
      "min": [
        0
      ],
      "type": "SCALAR"
    },
    {
      "bufferView": 1,
      "byteOffset": 7863840,
      "componentType": 5126,
      "count": 65532,
      "max": [
        2.7291016578674316,
        2.5595757961273193,
        2.4288907051086426
      ],
      "min": [
        0.8104851245880127,
        0.52121591567993164,
        0.20052838325500488
      ],
      "type": "VEC3"
    },
    {
      "bufferView": 1,
      "byteOffset": 8650224,
      "componentType": 5126,
      "count": 65532,
      "max": [
        0.99938184022903442,
        0.99946820735931396,
        0.98184323310852051
      ],
      "min": [
        -0.99998509883880615,
        -0.99999284744262695,
        -0.99999791383743286
      ],
      "type": "VEC3"
    },
    {
      "bufferView": 2,
      "byteOffset": 5242560,
      "componentType": 5126,
      "count": 65532,
      "max": [
        0.9843137264251709,
        0.7607843279838562,
        0.31764706969261169,
        1
      ],
      "min": [
        0.70980393886566162,
        0.45882353186607361,
        0.19215686619281769,
        1
      ],
      "type": "VEC4"
    },
    {
      "bufferView": 0,
      "byteOffset": 7358964,
      "componentType": 5125,
      "count": 360978,
      "max": [
        65531
      ],
      "min": [
        0
      ],
      "type": "SCALAR"
    },
    {
      "bufferView": 1,
      "byteOffset": 9436608,
      "componentType": 5126,
      "count": 65532,
      "max": [
        2.7477593421936035,
        2.4384119510650635,
        1.4070020914077759
      ],
      "min": [
        1.3471109867095947,
        1.2240147590637207,
        0.17969822883605957
      ],
      "type": "VEC3"
    },
    {
      "bufferView": 1,
      "byteOffset": 10222992,
      "componentType": 5126,
      "count": 65532,
      "max": [
        0.99998807907104492,
        0.99959725141525269,
        0.99902480840682983
      ],
      "min": [
        -0.92946785688400269,
        -0.60983771085739136,
        -0.99999278783798218
      ],
      "type": "VEC3"
    },
    {
      "bufferView": 2,
      "byteOffset": 6291072,
      "componentType": 5126,
      "count": 65532,
      "max": [
        0.9843137264251709,
        0.7607843279838562,
        0.30196079611778259,
        1
      ],
      "min": [
        0.70980393886566162,
        0.45098039507865906,
        0.18823529779911041,
        1
      ],
      "type": "VEC4"
    },
    {
      "bufferView": 0,
      "byteOffset": 8802876,
      "componentType": 5125,
      "count": 369675,
      "max": [
        65531
      ],
      "min": [
        0
      ],
      "type": "SCALAR"
    },
    {
      "bufferView": 1,
      "byteOffset": 11009376,
      "componentType": 5126,
      "count": 65532,
      "max": [
        3.3534407615661621,
        2.5789999961853027,
        3.6715066432952881
      ],
      "min": [
        0,
        0,
        0
      ],
      "type": "VEC3"
    },
    {
      "bufferView": 1,
      "byteOffset": 11795760,
      "componentType": 5126,
      "count": 65532,
      "max": [
        0.99999833106994629,
        0.99986368417739868,
        0.99998718500137329
      ],
      "min": [
        -0.99997824430465698,
        -0.99971848726272583,
        -0.99999994039535522
      ],
      "type": "VEC3"
    },
    {
      "bufferView": 2,
      "byteOffset": 7339584,
      "componentType": 5126,
      "count": 65532,
      "max": [
        1,
        1,
        1,
        1
      ],
      "min": [
        0.15294118225574493,
        0.14117647707462311,
        0.12549020349979401,
        1
      ],
      "type": "VEC4"
    },
    {
      "bufferView": 0,
      "byteOffset": 10281576,
      "componentType": 5125,
      "count": 315654,
      "max": [
        65531
      ],
      "min": [
        0
      ],
      "type": "SCALAR"
    },
    {
      "bufferView": 1,
      "byteOffset": 12582144,
      "componentType": 5126,
      "count": 65532,
      "max": [
        3.3214483261108398,
        2.5718979835510254,
        3.4020295143127441
      ],
      "min": [
        0.031992197036743164,
        0.5012211799621582,
        0.00019335746765136719
      ],
      "type": "VEC3"
    },
    {
      "bufferView": 1,
      "byteOffset": 13368528,
      "componentType": 5126,
      "count": 65532,
      "max": [
        0.99999290704727173,
        0.99999266862869263,
        0.99995112419128418
      ],
      "min": [
        -0.99999648332595825,
        -0.99999499320983887,
        -0.99989783763885498
      ],
      "type": "VEC3"
    },
    {
      "bufferView": 2,
      "byteOffset": 8388096,
      "componentType": 5126,
      "count": 65532,
      "max": [
        1,
        1,
        1,
        1
      ],
      "min": [
        0.17254902422428131,
        0.17254902422428131,
        0.17254902422428131,
        1
      ],
      "type": "VEC4"
    },
    {
      "bufferView": 0,
      "byteOffset": 11544192,
      "componentType": 5125,
      "count": 338193,
      "max": [
        65531
      ],
      "min": [
        0
      ],
      "type": "SCALAR"
    },
    {
      "bufferView": 1,
      "byteOffset": 14154912,
      "componentType": 5126,
      "count": 65532,
      "max": [
        3.3530731201171875,
        2.4718282222747803,
        3.6620697975158691
      ],
      "min": [
        0.00036764144897460938,
        0.00043392181396484375,
        4.1246414184570312e-05
      ],
      "type": "VEC3"
    },
    {
      "bufferView": 1,
      "byteOffset": 14941296,
      "componentType": 5126,
      "count": 65532,
      "max": [
        0.99999767541885376,
        0.99822813272476196,
        0.99998718500137329
      ],
      "min": [
        -0.99999922513961792,
        -0.99922233819961548,
        -0.99999982118606567
      ],
      "type": "VEC3"
    },
    {
      "bufferView": 2,
      "byteOffset": 9436608,
      "componentType": 5126,
      "count": 65532,
      "max": [
        1,
        1,
        1,
        1
      ],
      "min": [
        0.15686275064945221,
        0.14509804546833038,
        0.12941177189350128,
        1
      ],
      "type": "VEC4"
    },
    {
      "bufferView": 0,
      "byteOffset": 12896964,
      "componentType": 5125,
      "count": 332589,
      "max": [
        65531
      ],
      "min": [
        0
      ],
      "type": "SCALAR"
    },
    {
      "bufferView": 1,
      "byteOffset": 15727680,
      "componentType": 5126,
      "count": 65532,
      "max": [
        3.3532712459564209,
        2.6669430732727051,
        3.6668848991394043
      ],
      "min": [
        0.00016951560974121094,
        0.00099587440490722656,
        0.0099308490753173828
      ],
      "type": "VEC3"
    },
    {
      "bufferView": 1,
      "byteOffset": 16514064,
      "componentType": 5126,
      "count": 65532,
      "max": [
        0.99993014335632324,
        0.99986380338668823,
        0.99995666742324829
      ],
      "min": [
        -0.99992662668228149,
        -0.99999499320983887,
        -0.9996911883354187
      ],
      "type": "VEC3"
    },
    {
      "bufferView": 2,
      "byteOffset": 10485120,
      "componentType": 5126,
      "count": 65532,
      "max": [
        1,
        1,
        1,
        1
      ],
      "min": [
        0.15294118225574493,
        0.14117647707462311,
        0.12549020349979401,
        1
      ],
      "type": "VEC4"
    },
    {
      "bufferView": 0,
      "byteOffset": 14227320,
      "componentType": 5125,
      "count": 322500,
      "max": [
        65531
      ],
      "min": [
        0
      ],
      "type": "SCALAR"
    },
    {
      "bufferView": 1,
      "byteOffset": 17300448,
      "componentType": 5126,
      "count": 65534,
      "max": [
        3.3525071144104004,
        2.7074427604675293,
        3.6715066432952881
      ],
      "min": [
        0.00093340873718261719,
        2.5629997253417969e-05,
        0.00079774856567382812
      ],
      "type": "VEC3"
    },
    {
      "bufferView": 1,
      "byteOffset": 18086856,
      "componentType": 5126,
      "count": 65534,
      "max": [
        0.9999961256980896,
        0.99999523162841797,
        0.99999994039535522
      ],
      "min": [
        -0.99995511770248413,
        -0.99971848726272583,
        -0.99999147653579712
      ],
      "type": "VEC3"
    },
    {
      "bufferView": 2,
      "byteOffset": 11533632,
      "componentType": 5126,
      "count": 65534,
      "max": [
        1,
        1,
        1,
        1
      ],
      "min": [
        0.15294118225574493,
        0.14117647707462311,
        0.12549020349979401,
        1
      ],
      "type": "VEC4"
    },
    {
      "bufferView": 0,
      "byteOffset": 15517320,
      "componentType": 5125,
      "count": 257148,
      "max": [
        65533
      ],
      "min": [
        0
      ],
      "type": "SCALAR"
    },
    {
      "bufferView": 1,
      "byteOffset": 18873264,
      "componentType": 5126,
      "count": 65533,
      "max": [
        3.3360006809234619,
        2.7078423500061035,
        3.4819164276123047
      ],
      "min": [
        0.017440199851989746,
        0.0033719539642333984,
        0.0018589496612548828
      ],
      "type": "VEC3"
    },
    {
      "bufferView": 1,
      "byteOffset": 19659660,
      "componentType": 5126,
      "count": 65533,
      "max": [
        1,
        0.99992698431015015,
        0.99981307983398438
      ],
      "min": [
        -0.99999648332595825,
        -0.99984854459762573,
        -0.99999994039535522
      ],
      "type": "VEC3"
    },
    {
      "bufferView": 2,
      "byteOffset": 12582176,
      "componentType": 5126,
      "count": 65533,
      "max": [
        1,
        1,
        1,
        1
      ],
      "min": [
        0.17254902422428131,
        0.17254902422428131,
        0.17254902422428131,
        1
      ],
      "type": "VEC4"
    },
    {
      "bufferView": 0,
      "byteOffset": 16545912,
      "componentType": 5125,
      "count": 105447,
      "max": [
        65532
      ],
      "min": [
        0
      ],
      "type": "SCALAR"
    },
    {
      "bufferView": 1,
      "byteOffset": 20446056,
      "componentType": 5126,
      "count": 5532,
      "max": [
        2.7846860885620117,
        2.6702377796173096,
        3.4819016456604004
      ],
      "min": [
        0.48313295841217041,
        0.035026192665100098,
        0.00154876708984375
      ],
      "type": "VEC3"
    },
    {
      "bufferView": 1,
      "byteOffset": 20512440,
      "componentType": 5126,
      "count": 5532,
      "max": [
        0.99940109252929688,
        0.99985969066619873,
        0.99981164932250977
      ],
      "min": [
        -0.99813121557235718,
        -0.99995589256286621,
        -0.99999737739562988
      ],
      "type": "VEC3"
    },
    {
      "bufferView": 2,
      "byteOffset": 13630704,
      "componentType": 5126,
      "count": 5532,
      "max": [
        1,
        1,
        1,
        1
      ],
      "min": [
        0.70980393886566162,
        0.45098039507865906,
        0.19215686619281769,
        1
      ],
      "type": "VEC4"
    },
    {
      "bufferView": 0,
      "byteOffset": 16967700,
      "componentType": 5125,
      "count": 7335,
      "max": [
        5531
      ],
      "min": [
        0
      ],
      "type": "SCALAR"
    }
  ],
  "asset": {
    "extras": {
      "author": "BoHC (https://sketchfab.com/YongChunQuanShenFuShuaiJiao)",
      "license": "CC-BY-NC-SA-4.0 (http://creativecommons.org/licenses/by-nc-sa/4.0/)",
      "source": "https://sketchfab.com/models/4c6bd1e4f8c944a299ce820bfa7fd67e",
      "title": "Psyduck"
    },
    "generator": "Sketchfab-3.18.7",
    "version": "2.0"
  },
  "bufferViews": [
    {
      "buffer": 0,
      "byteLength": 16997040,
      "byteOffset": 0,
      "name": "floatBufferViews",
      "target": 34963
    },
    {
      "buffer": 0,
      "byteLength": 20578824,
      "byteOffset": 16997040,
      "byteStride": 12,
      "name": "floatBufferViews",
      "target": 34962
    },
    {
      "buffer": 0,
      "byteLength": 13719216,
      "byteOffset": 37575864,
      "byteStride": 16,
      "name": "floatBufferViews",
      "target": 34962
    }
  ],
  "buffers": [
    {
      "byteLength": 51295080,
      "uri": "scene.bin"
    }
  ],
  "materials": [
    {
      "doubleSided": true,
      "emissiveFactor": [
        0,
        0,
        0
      ],
      "name": "material_0",
      "pbrMetallicRoughness": {
        "baseColorFactor": [
          1,
          1,
          1,
          1
        ],
        "metallicFactor": 0,
        "roughnessFactor": 0.68000000000000005
      }
    }
  ],
  "meshes": [
    {
      "primitives": [
        {
          "attributes": {
            "COLOR_0": 2,
            "NORMAL": 1,
            "POSITION": 0
          },
          "indices": 3,
          "material": 0,
          "mode": 4
        }
      ]
    },
    {
      "primitives": [
        {
          "attributes": {
            "COLOR_0": 6,
            "NORMAL": 5,
            "POSITION": 4
          },
          "indices": 7,
          "material": 0,
          "mode": 4
        }
      ]
    },
    {
      "primitives": [
        {
          "attributes": {
            "COLOR_0": 10,
            "NORMAL": 9,
            "POSITION": 8
          },
          "indices": 11,
          "material": 0,
          "mode": 4
        }
      ]
    },
    {
      "primitives": [
        {
          "attributes": {
            "COLOR_0": 14,
            "NORMAL": 13,
            "POSITION": 12
          },
          "indices": 15,
          "material": 0,
          "mode": 4
        }
      ]
    },
    {
      "primitives": [
        {
          "attributes": {
            "COLOR_0": 18,
            "NORMAL": 17,
            "POSITION": 16
          },
          "indices": 19,
          "material": 0,
          "mode": 4
        }
      ]
    },
    {
      "primitives": [
        {
          "attributes": {
            "COLOR_0": 22,
            "NORMAL": 21,
            "POSITION": 20
          },
          "indices": 23,
          "material": 0,
          "mode": 4
        }
      ]
    },
    {
      "primitives": [
        {
          "attributes": {
            "COLOR_0": 26,
            "NORMAL": 25,
            "POSITION": 24
          },
          "indices": 27,
          "material": 0,
          "mode": 4
        }
      ]
    },
    {
      "primitives": [
        {
          "attributes": {
            "COLOR_0": 30,
            "NORMAL": 29,
            "POSITION": 28
          },
          "indices": 31,
          "material": 0,
          "mode": 4
        }
      ]
    },
    {
      "primitives": [
        {
          "attributes": {
            "COLOR_0": 34,
            "NORMAL": 33,
            "POSITION": 32
          },
          "indices": 35,
          "material": 0,
          "mode": 4
        }
      ]
    },
    {
      "primitives": [
        {
          "attributes": {
            "COLOR_0": 38,
            "NORMAL": 37,
            "POSITION": 36
          },
          "indices": 39,
          "material": 0,
          "mode": 4
        }
      ]
    },
    {
      "primitives": [
        {
          "attributes": {
            "COLOR_0": 42,
            "NORMAL": 41,
            "POSITION": 40
          },
          "indices": 43,
          "material": 0,
          "mode": 4
        }
      ]
    },
    {
      "primitives": [
        {
          "attributes": {
            "COLOR_0": 46,
            "NORMAL": 45,
            "POSITION": 44
          },
          "indices": 47,
          "material": 0,
          "mode": 4
        }
      ]
    },
    {
      "primitives": [
        {
          "attributes": {
            "COLOR_0": 50,
            "NORMAL": 49,
            "POSITION": 48
          },
          "indices": 51,
          "material": 0,
          "mode": 4
        }
      ]
    },
    {
      "primitives": [
        {
          "attributes": {
            "COLOR_0": 54,
            "NORMAL": 53,
            "POSITION": 52
          },
          "indices": 55,
          "material": 0,
          "mode": 4
        }
      ]
    }
  ],
  "nodes": [
    {
      "children": [
        1
      ],
      "name": "RootNode (gltf orientation matrix)",
      "rotation": [
        -0.70710678118654746,
        -0,
        -0,
        0.70710678118654757
      ]
    },
    {
      "children": [
        2
      ],
      "name": "RootNode (model correction matrix)"
    },
    {
      "children": [
        3
      ],
      "matrix": [
        1,
        0,
        0,
        0,
        0,
        1,
        0,
        0,
        0,
        0,
        1,
        0,
        -1.6767203807830811,
        -1.7089086771011353,
        -2.6731851100921631,
        1
      ],
      "name": "duck.OBJ.cleaner.gles"
    },
    {
      "children": [
        4,
        5,
        6,
        7,
        8,
        9,
        10,
        11,
        12,
        13,
        14,
        15,
        16,
        17
      ],
      "name": ""
    },
    {
      "mesh": 0,
      "name": ""
    },
    {
      "mesh": 1,
      "name": ""
    },
    {
      "mesh": 2,
      "name": ""
    },
    {
      "mesh": 3,
      "name": ""
    },
    {
      "mesh": 4,
      "name": ""
    },
    {
      "mesh": 5,
      "name": ""
    },
    {
      "mesh": 6,
      "name": ""
    },
    {
      "mesh": 7,
      "name": ""
    },
    {
      "mesh": 8,
      "name": ""
    },
    {
      "mesh": 9,
      "name": ""
    },
    {
      "mesh": 10,
      "name": ""
    },
    {
      "mesh": 11,
      "name": ""
    },
    {
      "mesh": 12,
      "name": ""
    },
    {
      "mesh": 13,
      "name": ""
    }
  ],
  "scene": 0,
  "scenes": [
    {
      "name": "OSG_Scene",
      "nodes": [
        0
      ]
    }
  ]
}

